<mxfile host="app.diagrams.net" agent="Mozilla/5.0 (Windows NT 10.0; Win64; x64) AppleWebKit/537.36 (KHTML, like Gecko) Chrome/129.0.0.0 Safari/537.36" version="24.7.17">
  <diagram id="C5RBs43oDa-KdzZeNtuy" name="Page-1">
    <mxGraphModel dx="2562" dy="1015" grid="1" gridSize="10" guides="1" tooltips="1" connect="1" arrows="1" fold="1" page="1" pageScale="1" pageWidth="827" pageHeight="1169" math="0" shadow="0">
      <root>
        <mxCell id="WIyWlLk6GJQsqaUBKTNV-0" />
        <mxCell id="WIyWlLk6GJQsqaUBKTNV-1" parent="WIyWlLk6GJQsqaUBKTNV-0" />
        <mxCell id="0Jmnl32hI6P7KWc1Vm8X-0" value="Examen" style="whiteSpace=wrap;html=1;align=center;fillColor=#f0a30a;strokeColor=#BD7000;fontColor=#000000;" vertex="1" parent="WIyWlLk6GJQsqaUBKTNV-1">
          <mxGeometry x="280" y="570" width="100" height="40" as="geometry" />
        </mxCell>
        <mxCell id="0Jmnl32hI6P7KWc1Vm8X-1" value="" style="triangle;whiteSpace=wrap;html=1;rotation=90;fillColor=#f0a30a;strokeColor=#BD7000;fontColor=#000000;" vertex="1" parent="WIyWlLk6GJQsqaUBKTNV-1">
          <mxGeometry x="315" y="635" width="30" height="60" as="geometry" />
        </mxCell>
        <mxCell id="0Jmnl32hI6P7KWc1Vm8X-2" value="" style="endArrow=none;html=1;rounded=0;exitX=0.5;exitY=1;exitDx=0;exitDy=0;entryX=0.75;entryY=0;entryDx=0;entryDy=0;" edge="1" source="0Jmnl32hI6P7KWc1Vm8X-1" parent="WIyWlLk6GJQsqaUBKTNV-1" target="0Jmnl32hI6P7KWc1Vm8X-12">
          <mxGeometry relative="1" as="geometry">
            <mxPoint x="470" y="680" as="sourcePoint" />
            <mxPoint x="190" y="738" as="targetPoint" />
          </mxGeometry>
        </mxCell>
        <mxCell id="0Jmnl32hI6P7KWc1Vm8X-3" value="" style="endArrow=none;html=1;rounded=0;exitX=0.5;exitY=0;exitDx=0;exitDy=0;entryX=0.5;entryY=0;entryDx=0;entryDy=0;" edge="1" source="0Jmnl32hI6P7KWc1Vm8X-1" parent="WIyWlLk6GJQsqaUBKTNV-1" target="0Jmnl32hI6P7KWc1Vm8X-11">
          <mxGeometry relative="1" as="geometry">
            <mxPoint x="470" y="680" as="sourcePoint" />
            <mxPoint x="487" y="750" as="targetPoint" />
          </mxGeometry>
        </mxCell>
        <mxCell id="0Jmnl32hI6P7KWc1Vm8X-4" value="" style="ellipse;whiteSpace=wrap;html=1;aspect=fixed;" vertex="1" parent="WIyWlLk6GJQsqaUBKTNV-1">
          <mxGeometry x="325" y="625" width="10" height="10" as="geometry" />
        </mxCell>
        <mxCell id="0Jmnl32hI6P7KWc1Vm8X-5" value="" style="endArrow=none;html=1;rounded=0;exitX=0.5;exitY=0;exitDx=0;exitDy=0;entryX=0.5;entryY=1;entryDx=0;entryDy=0;" edge="1" source="0Jmnl32hI6P7KWc1Vm8X-4" target="0Jmnl32hI6P7KWc1Vm8X-0" parent="WIyWlLk6GJQsqaUBKTNV-1">
          <mxGeometry relative="1" as="geometry">
            <mxPoint x="470" y="680" as="sourcePoint" />
            <mxPoint x="630" y="680" as="targetPoint" />
          </mxGeometry>
        </mxCell>
        <mxCell id="0Jmnl32hI6P7KWc1Vm8X-6" value="" style="endArrow=none;html=1;rounded=0;exitX=0.5;exitY=1;exitDx=0;exitDy=0;entryX=0;entryY=0.5;entryDx=0;entryDy=0;" edge="1" source="0Jmnl32hI6P7KWc1Vm8X-4" target="0Jmnl32hI6P7KWc1Vm8X-1" parent="WIyWlLk6GJQsqaUBKTNV-1">
          <mxGeometry relative="1" as="geometry">
            <mxPoint x="470" y="680" as="sourcePoint" />
            <mxPoint x="630" y="680" as="targetPoint" />
          </mxGeometry>
        </mxCell>
        <mxCell id="0Jmnl32hI6P7KWc1Vm8X-7" value="" style="ellipse;whiteSpace=wrap;html=1;aspect=fixed;" vertex="1" parent="WIyWlLk6GJQsqaUBKTNV-1">
          <mxGeometry x="377" y="654" width="10" height="10" as="geometry" />
        </mxCell>
        <mxCell id="0Jmnl32hI6P7KWc1Vm8X-8" value="" style="endArrow=none;html=1;rounded=0;exitX=0;exitY=0.5;exitDx=0;exitDy=0;entryX=0.3;entryY=0.167;entryDx=0;entryDy=0;entryPerimeter=0;" edge="1" source="0Jmnl32hI6P7KWc1Vm8X-7" target="0Jmnl32hI6P7KWc1Vm8X-1" parent="WIyWlLk6GJQsqaUBKTNV-1">
          <mxGeometry relative="1" as="geometry">
            <mxPoint x="470" y="680" as="sourcePoint" />
            <mxPoint x="630" y="680" as="targetPoint" />
          </mxGeometry>
        </mxCell>
        <mxCell id="0Jmnl32hI6P7KWc1Vm8X-9" value="Tipo" style="text;html=1;align=center;verticalAlign=middle;whiteSpace=wrap;rounded=0;" vertex="1" parent="WIyWlLk6GJQsqaUBKTNV-1">
          <mxGeometry x="377" y="644" width="60" height="30" as="geometry" />
        </mxCell>
        <mxCell id="0Jmnl32hI6P7KWc1Vm8X-10" value="" style="endArrow=none;html=1;rounded=0;" edge="1" parent="WIyWlLk6GJQsqaUBKTNV-1">
          <mxGeometry relative="1" as="geometry">
            <mxPoint x="240" y="680" as="sourcePoint" />
            <mxPoint x="420" y="680" as="targetPoint" />
            <Array as="points">
              <mxPoint x="330" y="710" />
            </Array>
          </mxGeometry>
        </mxCell>
        <mxCell id="0Jmnl32hI6P7KWc1Vm8X-11" value="Teórico" style="whiteSpace=wrap;html=1;align=center;fillColor=#f0a30a;strokeColor=#BD7000;fontColor=#000000;" vertex="1" parent="WIyWlLk6GJQsqaUBKTNV-1">
          <mxGeometry x="387" y="740" width="100" height="40" as="geometry" />
        </mxCell>
        <mxCell id="0Jmnl32hI6P7KWc1Vm8X-12" value="Práctico" style="whiteSpace=wrap;html=1;align=center;fillColor=#f0a30a;strokeColor=#BD7000;fontColor=#000000;" vertex="1" parent="WIyWlLk6GJQsqaUBKTNV-1">
          <mxGeometry x="160" y="730" width="100" height="40" as="geometry" />
        </mxCell>
        <mxCell id="0Jmnl32hI6P7KWc1Vm8X-13" value="Alumno" style="whiteSpace=wrap;html=1;align=center;fillColor=#f0a30a;strokeColor=#BD7000;fontColor=#000000;" vertex="1" parent="WIyWlLk6GJQsqaUBKTNV-1">
          <mxGeometry x="-220" y="570" width="100" height="40" as="geometry" />
        </mxCell>
        <mxCell id="0Jmnl32hI6P7KWc1Vm8X-14" value="Grupo" style="whiteSpace=wrap;html=1;align=center;fillColor=#f0a30a;strokeColor=#BD7000;fontColor=#000000;" vertex="1" parent="WIyWlLk6GJQsqaUBKTNV-1">
          <mxGeometry x="-220" y="870" width="100" height="40" as="geometry" />
        </mxCell>
        <mxCell id="0Jmnl32hI6P7KWc1Vm8X-15" value="Profesor" style="whiteSpace=wrap;html=1;align=center;fillColor=#f0a30a;strokeColor=#BD7000;fontColor=#000000;" vertex="1" parent="WIyWlLk6GJQsqaUBKTNV-1">
          <mxGeometry x="280" y="970" width="100" height="40" as="geometry" />
        </mxCell>
        <mxCell id="0Jmnl32hI6P7KWc1Vm8X-16" value="Crea" style="shape=rhombus;perimeter=rhombusPerimeter;whiteSpace=wrap;html=1;align=center;fillColor=#76608a;fontColor=#ffffff;strokeColor=#432D57;" vertex="1" parent="WIyWlLk6GJQsqaUBKTNV-1">
          <mxGeometry x="392" y="850" width="90" height="40" as="geometry" />
        </mxCell>
        <mxCell id="0Jmnl32hI6P7KWc1Vm8X-17" value="Diseña" style="shape=rhombus;perimeter=rhombusPerimeter;whiteSpace=wrap;html=1;align=center;fillColor=#76608a;fontColor=#ffffff;strokeColor=#432D57;" vertex="1" parent="WIyWlLk6GJQsqaUBKTNV-1">
          <mxGeometry x="165" y="850" width="90" height="40" as="geometry" />
        </mxCell>
        <mxCell id="0Jmnl32hI6P7KWc1Vm8X-19" value="" style="endArrow=none;html=1;rounded=0;entryX=0.5;entryY=0;entryDx=0;entryDy=0;exitX=0.5;exitY=1;exitDx=0;exitDy=0;" edge="1" parent="WIyWlLk6GJQsqaUBKTNV-1" source="0Jmnl32hI6P7KWc1Vm8X-12" target="0Jmnl32hI6P7KWc1Vm8X-17">
          <mxGeometry relative="1" as="geometry">
            <mxPoint x="210" y="780" as="sourcePoint" />
            <mxPoint x="460" y="810" as="targetPoint" />
          </mxGeometry>
        </mxCell>
        <mxCell id="0Jmnl32hI6P7KWc1Vm8X-20" value="N" style="resizable=0;html=1;whiteSpace=wrap;align=right;verticalAlign=bottom;" connectable="0" vertex="1" parent="0Jmnl32hI6P7KWc1Vm8X-19">
          <mxGeometry x="1" relative="1" as="geometry" />
        </mxCell>
        <mxCell id="0Jmnl32hI6P7KWc1Vm8X-21" value="" style="endArrow=none;html=1;rounded=0;entryX=0.25;entryY=0;entryDx=0;entryDy=0;exitX=0.5;exitY=1;exitDx=0;exitDy=0;" edge="1" parent="WIyWlLk6GJQsqaUBKTNV-1" source="0Jmnl32hI6P7KWc1Vm8X-17" target="0Jmnl32hI6P7KWc1Vm8X-15">
          <mxGeometry relative="1" as="geometry">
            <mxPoint x="220" y="780" as="sourcePoint" />
            <mxPoint x="220" y="860" as="targetPoint" />
          </mxGeometry>
        </mxCell>
        <mxCell id="0Jmnl32hI6P7KWc1Vm8X-22" value="N" style="resizable=0;html=1;whiteSpace=wrap;align=right;verticalAlign=bottom;" connectable="0" vertex="1" parent="0Jmnl32hI6P7KWc1Vm8X-21">
          <mxGeometry x="1" relative="1" as="geometry" />
        </mxCell>
        <mxCell id="0Jmnl32hI6P7KWc1Vm8X-23" value="" style="endArrow=none;html=1;rounded=0;entryX=0.75;entryY=0;entryDx=0;entryDy=0;exitX=0.5;exitY=1;exitDx=0;exitDy=0;" edge="1" parent="WIyWlLk6GJQsqaUBKTNV-1" source="0Jmnl32hI6P7KWc1Vm8X-16" target="0Jmnl32hI6P7KWc1Vm8X-15">
          <mxGeometry relative="1" as="geometry">
            <mxPoint x="230" y="790" as="sourcePoint" />
            <mxPoint x="230" y="870" as="targetPoint" />
          </mxGeometry>
        </mxCell>
        <mxCell id="0Jmnl32hI6P7KWc1Vm8X-24" value="N" style="resizable=0;html=1;whiteSpace=wrap;align=right;verticalAlign=bottom;" connectable="0" vertex="1" parent="0Jmnl32hI6P7KWc1Vm8X-23">
          <mxGeometry x="1" relative="1" as="geometry" />
        </mxCell>
        <mxCell id="0Jmnl32hI6P7KWc1Vm8X-25" value="" style="endArrow=none;html=1;rounded=0;entryX=0.5;entryY=0;entryDx=0;entryDy=0;exitX=0.5;exitY=1;exitDx=0;exitDy=0;" edge="1" parent="WIyWlLk6GJQsqaUBKTNV-1" source="0Jmnl32hI6P7KWc1Vm8X-11" target="0Jmnl32hI6P7KWc1Vm8X-16">
          <mxGeometry relative="1" as="geometry">
            <mxPoint x="240" y="800" as="sourcePoint" />
            <mxPoint x="240" y="880" as="targetPoint" />
          </mxGeometry>
        </mxCell>
        <mxCell id="0Jmnl32hI6P7KWc1Vm8X-26" value="N" style="resizable=0;html=1;whiteSpace=wrap;align=right;verticalAlign=bottom;" connectable="0" vertex="1" parent="0Jmnl32hI6P7KWc1Vm8X-25">
          <mxGeometry x="1" relative="1" as="geometry" />
        </mxCell>
        <mxCell id="0Jmnl32hI6P7KWc1Vm8X-27" value="" style="endArrow=none;html=1;rounded=0;entryX=1;entryY=0.5;entryDx=0;entryDy=0;exitX=0;exitY=0.5;exitDx=0;exitDy=0;" edge="1" parent="WIyWlLk6GJQsqaUBKTNV-1" source="0Jmnl32hI6P7KWc1Vm8X-0" target="0Jmnl32hI6P7KWc1Vm8X-29">
          <mxGeometry relative="1" as="geometry">
            <mxPoint x="250" y="810" as="sourcePoint" />
            <mxPoint x="250" y="890" as="targetPoint" />
          </mxGeometry>
        </mxCell>
        <mxCell id="0Jmnl32hI6P7KWc1Vm8X-28" value="N" style="resizable=0;html=1;whiteSpace=wrap;align=right;verticalAlign=bottom;" connectable="0" vertex="1" parent="0Jmnl32hI6P7KWc1Vm8X-27">
          <mxGeometry x="1" relative="1" as="geometry" />
        </mxCell>
        <mxCell id="0Jmnl32hI6P7KWc1Vm8X-29" value="Realiza" style="shape=rhombus;perimeter=rhombusPerimeter;whiteSpace=wrap;html=1;align=center;fillColor=#76608a;fontColor=#ffffff;strokeColor=#432D57;" vertex="1" parent="WIyWlLk6GJQsqaUBKTNV-1">
          <mxGeometry y="570" width="90" height="40" as="geometry" />
        </mxCell>
        <mxCell id="0Jmnl32hI6P7KWc1Vm8X-30" value="" style="endArrow=none;html=1;rounded=0;entryX=1;entryY=0.5;entryDx=0;entryDy=0;exitX=0;exitY=0.5;exitDx=0;exitDy=0;" edge="1" parent="WIyWlLk6GJQsqaUBKTNV-1" source="0Jmnl32hI6P7KWc1Vm8X-29" target="0Jmnl32hI6P7KWc1Vm8X-13">
          <mxGeometry relative="1" as="geometry">
            <mxPoint x="290" y="600" as="sourcePoint" />
            <mxPoint x="100" y="600" as="targetPoint" />
          </mxGeometry>
        </mxCell>
        <mxCell id="0Jmnl32hI6P7KWc1Vm8X-31" value="N" style="resizable=0;html=1;whiteSpace=wrap;align=right;verticalAlign=bottom;" connectable="0" vertex="1" parent="0Jmnl32hI6P7KWc1Vm8X-30">
          <mxGeometry x="1" relative="1" as="geometry" />
        </mxCell>
        <mxCell id="0Jmnl32hI6P7KWc1Vm8X-32" value="Pertenece" style="shape=rhombus;perimeter=rhombusPerimeter;whiteSpace=wrap;html=1;align=center;fillColor=#76608a;fontColor=#ffffff;strokeColor=#432D57;" vertex="1" parent="WIyWlLk6GJQsqaUBKTNV-1">
          <mxGeometry x="-215" y="720" width="90" height="40" as="geometry" />
        </mxCell>
        <mxCell id="0Jmnl32hI6P7KWc1Vm8X-33" value="" style="endArrow=none;html=1;rounded=0;entryX=0.5;entryY=1;entryDx=0;entryDy=0;exitX=0.5;exitY=0;exitDx=0;exitDy=0;" edge="1" parent="WIyWlLk6GJQsqaUBKTNV-1" source="0Jmnl32hI6P7KWc1Vm8X-32" target="0Jmnl32hI6P7KWc1Vm8X-13">
          <mxGeometry relative="1" as="geometry">
            <mxPoint x="10" y="600" as="sourcePoint" />
            <mxPoint x="-110" y="600" as="targetPoint" />
          </mxGeometry>
        </mxCell>
        <mxCell id="0Jmnl32hI6P7KWc1Vm8X-34" value="N" style="resizable=0;html=1;whiteSpace=wrap;align=right;verticalAlign=bottom;" connectable="0" vertex="1" parent="0Jmnl32hI6P7KWc1Vm8X-33">
          <mxGeometry x="1" relative="1" as="geometry" />
        </mxCell>
        <mxCell id="0Jmnl32hI6P7KWc1Vm8X-35" value="" style="endArrow=none;html=1;rounded=0;entryX=0.5;entryY=0;entryDx=0;entryDy=0;exitX=0.5;exitY=1;exitDx=0;exitDy=0;" edge="1" parent="WIyWlLk6GJQsqaUBKTNV-1" source="0Jmnl32hI6P7KWc1Vm8X-32" target="0Jmnl32hI6P7KWc1Vm8X-14">
          <mxGeometry relative="1" as="geometry">
            <mxPoint x="20" y="610" as="sourcePoint" />
            <mxPoint x="-100" y="610" as="targetPoint" />
          </mxGeometry>
        </mxCell>
        <mxCell id="0Jmnl32hI6P7KWc1Vm8X-36" value="N" style="resizable=0;html=1;whiteSpace=wrap;align=right;verticalAlign=bottom;" connectable="0" vertex="1" parent="0Jmnl32hI6P7KWc1Vm8X-35">
          <mxGeometry x="1" relative="1" as="geometry" />
        </mxCell>
      </root>
    </mxGraphModel>
  </diagram>
</mxfile>
